<?xml version="1.0" encoding="utf-8"?>
<!-- Generator: Adobe Illustrator 22.0.0, SVG Export Plug-In . SVG Version: 6.00 Build 0)  -->
<svg version="1.0" id="Layer_1" xmlns="http://www.w3.org/2000/svg" xmlns:xlink="http://www.w3.org/1999/xlink" x="0px" y="0px"
	 viewBox="0 0 252.6 70" style="enable-background:new 0 0 252.6 70;" xml:space="preserve">
<style type="text/css">
	.st0{fill:#134B88;}
	.st1{fill-rule:evenodd;clip-rule:evenodd;fill:#FFFFFF;}
	.st2{fill-rule:evenodd;clip-rule:evenodd;fill:#134B88;}
	.st3{fill-rule:evenodd;clip-rule:evenodd;fill:#BBBDBD;}
	.st4{fill-rule:evenodd;clip-rule:evenodd;fill:#E0E0DF;}
	.st5{fill-rule:evenodd;clip-rule:evenodd;fill:#111517;}
	.st6{fill-rule:evenodd;clip-rule:evenodd;fill:#E6E6E5;}
	.st7{fill-rule:evenodd;clip-rule:evenodd;fill:#FDB71E;}
	.st8{fill:#FFFFFF;}
</style>
<g>
	<g>
		<polygon class="st8" points="93.5,0.7 93.5,4 84,4 84,7.9 92.7,7.9 92.7,10.9 84,10.9 84,15.3 93.7,15.3 93.7,18.6 80.1,18.6 
			80.1,0.7 		"/>
		<path class="st8" d="M98.5,6.2c1.1-0.6,2.4-0.9,4.1-0.9c1.6,0,2.9,0.2,3.8,0.7c1.3,0.6,1.9,1.6,1.9,3v6.7c0,1.4,0.2,2.4,0.5,2.9
			h-3.6c-0.1-0.4-0.2-0.8-0.2-1.3c-1,1.1-2.5,1.6-4.4,1.6c-1.3,0-2.3-0.3-3.1-0.9c-0.9-0.7-1.3-1.6-1.3-2.9c0-0.7,0.1-1.3,0.4-1.8
			c0.4-0.7,0.9-1.2,1.7-1.5c0.5-0.2,1.3-0.4,2.3-0.6c1.3-0.2,2.3-0.3,3-0.4c0.9-0.2,1.3-0.6,1.3-1.3c0-0.7-0.2-1.2-0.6-1.4
			c-0.4-0.2-0.9-0.3-1.7-0.3c-1.5,0-2.2,0.7-2.4,2h-3.6C96.6,8.1,97.2,7,98.5,6.2 M102.6,12.9c-0.9,0.1-1.6,0.3-2,0.5
			c-0.7,0.3-1,0.8-1,1.6c0,1.1,0.7,1.7,2.2,1.7c0.7,0,1.2-0.1,1.6-0.3c0.8-0.5,1.3-1.4,1.3-2.6v-1.3
			C104.4,12.6,103.7,12.8,102.6,12.9"/>
		<path class="st8" d="M114.6,16.1c0.5,0.3,1.1,0.5,1.9,0.5c0.6,0,1.1-0.1,1.6-0.4c0.5-0.3,0.8-0.7,0.8-1.3c0-0.6-0.5-1.1-1.7-1.4
			c-0.3-0.1-1.1-0.3-2.4-0.6c-1.2-0.3-2.2-0.6-2.8-1c-0.9-0.6-1.4-1.4-1.4-2.5c0-2.8,1.9-4.2,5.6-4.2c1.6,0,2.9,0.3,3.8,0.9
			c1.2,0.7,1.8,1.8,1.9,3.3h-3.4c-0.1-1.2-0.9-1.8-2.4-1.8c-1.3,0-2,0.4-2,1.2c0,0.6,0.4,1,1.3,1.3c1.2,0.3,2.1,0.6,2.8,0.7
			c1.3,0.3,2.2,0.7,2.8,1.1c0.9,0.6,1.3,1.5,1.3,2.6c0,1.6-0.6,2.7-1.9,3.5c-1,0.6-2.4,1-4.1,1c-1.7,0-3.1-0.3-4.1-1
			c-1.3-0.8-1.9-2-2-3.6h3.4C113.7,15.1,114,15.7,114.6,16.1"/>
		<path class="st8" d="M131.6,5.7V8H129v6.4c0,0.6,0.1,1,0.3,1.2c0.2,0.2,0.6,0.3,1.2,0.3c0.4,0,0.8,0,1.1-0.1v2.8
			c-0.5,0.1-1.2,0.1-2.1,0.1c-1.3,0-2.2-0.2-2.9-0.5c-0.8-0.5-1.2-1.3-1.2-2.5V8h-2.2V5.7h2.2V1.8h3.6v3.9H131.6z"/>
		<path class="st8" d="M139.4,16.3c0.6,0,1.1-0.1,1.7-0.4c0.6-0.3,1-0.7,1.1-1.3h3.1c-0.9,2.9-3,4.3-6.1,4.3c-2,0-3.7-0.6-4.8-1.9
			c-1.2-1.3-1.8-2.9-1.8-4.9c0-1,0.2-1.9,0.5-2.7c0.5-1.3,1.3-2.3,2.4-3s2.4-1.1,3.8-1.1c1.1,0,2.1,0.2,2.9,0.6
			c1.2,0.7,2.2,1.6,2.8,3c0.5,1.2,0.8,2.6,0.7,4.1h-9.3C136.3,15.2,137.4,16.3,139.4,16.3 M139.2,8c-0.9,0-1.5,0.2-2.1,0.7
			c-0.5,0.5-0.8,1.2-0.9,2h5.8C141.6,8.9,140.7,8,139.2,8"/>
		<path class="st8" d="M151,5.7v2.4h0c0.3-0.8,0.9-1.5,1.7-2c0.8-0.5,1.6-0.8,2.5-0.8c0.2,0,0.5,0,0.8,0.1v3.3
			c-0.4-0.1-0.8-0.1-1.3-0.1c-2.3,0-3.5,1.4-3.5,4.2v5.8h-3.6v-13H151z"/>
		<path class="st8" d="M160.8,5.7v1.8h0.1c0.9-1.4,2.2-2.2,4-2.2c1.8,0,3,0.5,3.8,1.5c0.6,0.8,0.9,2.1,0.9,3.9v8H166v-7.3
			c0-1-0.1-1.7-0.4-2.2c-0.4-0.7-1-1-1.9-1c-1.1,0-1.8,0.4-2.3,1.1c-0.3,0.6-0.5,1.4-0.5,2.6v6.8h-3.6v-13H160.8z"/>
	</g>
	<g>
		<polygon class="st8" points="85.6,23.8 89.8,36.1 89.9,36.1 93.8,23.8 99.4,23.8 99.4,41.7 95.7,41.7 95.7,29 95.6,29 91.2,41.7 
			88.2,41.7 83.8,29.2 83.8,29.2 83.8,41.7 80.1,41.7 80.1,23.8 		"/>
		<path class="st8" d="M108.6,39.4c0.6,0,1.1-0.1,1.7-0.4c0.6-0.3,1-0.7,1.1-1.3h3.1c-0.9,2.9-3,4.3-6.1,4.3c-2,0-3.7-0.6-4.8-1.9
			c-1.2-1.3-1.8-2.9-1.8-4.9c0-1,0.2-1.9,0.5-2.7c0.5-1.3,1.3-2.3,2.4-3c1.1-0.7,2.4-1.1,3.8-1.1c1.1,0,2.1,0.2,2.9,0.6
			c1.2,0.7,2.2,1.6,2.8,3c0.5,1.2,0.8,2.6,0.7,4.1h-9.3C105.5,38.3,106.5,39.4,108.6,39.4 M108.3,31.1c-0.9,0-1.5,0.2-2.1,0.7
			c-0.5,0.5-0.8,1.2-0.9,2h5.8C110.8,32,109.9,31.1,108.3,31.1"/>
		<path class="st8" d="M126,40.1c-0.8,1.3-2.1,2-3.9,2c-1,0-1.8-0.2-2.5-0.6c-1.1-0.6-1.9-1.4-2.5-2.7c-0.5-1.1-0.7-2.3-0.7-3.7
			c0-1.9,0.5-3.4,1.5-4.7c1.1-1.4,2.5-2.1,4.3-2.1c1.7,0,3,0.6,3.8,1.9h0v-6.5h3.6v17.9h-3.4L126,40.1L126,40.1z M125.4,32.3
			c-0.6-0.8-1.4-1.3-2.4-1.3c-1.1,0-1.9,0.4-2.5,1.3c-0.5,0.7-0.7,1.7-0.7,2.9c0,1.1,0.2,2,0.7,2.8c0.6,0.9,1.4,1.4,2.4,1.4
			c2,0,3.1-1.4,3.1-4.2C126.1,34,125.8,33,125.4,32.3"/>
		<path class="st8" d="M132.2,23.8h3.6v2.9h-3.6V23.8z M135.8,41.7h-3.6v-13h3.6V41.7z"/>
		<path class="st8" d="M145.8,28.8v2.4h-2.6v6.4c0,0.6,0.1,1,0.3,1.2c0.2,0.2,0.6,0.3,1.2,0.3c0.4,0,0.8,0,1.1-0.1v2.8
			c-0.5,0.1-1.2,0.1-2.1,0.1c-1.3,0-2.2-0.2-2.9-0.6c-0.8-0.5-1.2-1.3-1.2-2.5v-7.6h-2.2v-2.4h2.2v-3.9h3.6v3.9H145.8z"/>
		<path class="st8" d="M153.6,39.4c0.6,0,1.1-0.1,1.7-0.4c0.6-0.3,1-0.7,1.1-1.3h3.1c-0.9,2.9-3,4.3-6.1,4.3c-2,0-3.7-0.6-4.8-1.9
			c-1.2-1.3-1.8-2.9-1.8-4.9c0-1,0.2-1.9,0.5-2.7c0.5-1.3,1.3-2.3,2.4-3c1.1-0.7,2.4-1.1,3.8-1.1c1.1,0,2.1,0.2,2.9,0.6
			c1.2,0.7,2.2,1.6,2.8,3c0.5,1.2,0.8,2.6,0.7,4.1h-9.3C150.5,38.3,151.5,39.4,153.6,39.4 M153.3,31.1c-0.9,0-1.5,0.2-2.1,0.7
			c-0.5,0.5-0.8,1.2-0.9,2h5.8C155.8,32,154.9,31.1,153.3,31.1"/>
		<path class="st8" d="M165.2,28.8v2.4h0c0.3-0.8,0.9-1.5,1.7-2c0.8-0.5,1.6-0.8,2.5-0.8c0.2,0,0.5,0,0.8,0.1v3.3
			c-0.4-0.1-0.8-0.1-1.3-0.1c-2.3,0-3.5,1.4-3.5,4.2v5.8h-3.6v-13H165.2z"/>
		<path class="st8" d="M175,28.8v2.4h0c0.3-0.8,0.9-1.5,1.7-2c0.8-0.5,1.6-0.8,2.5-0.8c0.2,0,0.5,0,0.8,0.1v3.3
			c-0.4-0.1-0.8-0.1-1.3-0.1c-2.3,0-3.5,1.4-3.5,4.2v5.8h-3.6v-13H175z"/>
		<path class="st8" d="M183.2,29.3c1.1-0.6,2.4-0.9,4.1-0.9c1.6,0,2.9,0.2,3.8,0.7c1.3,0.6,1.9,1.6,1.9,3v6.7c0,1.4,0.2,2.4,0.5,2.9
			h-3.6c-0.1-0.4-0.2-0.8-0.2-1.3c-1,1.1-2.5,1.6-4.4,1.6c-1.3,0-2.3-0.3-3.1-0.9c-0.9-0.7-1.3-1.6-1.3-2.9c0-0.7,0.1-1.3,0.4-1.8
			c0.4-0.7,0.9-1.2,1.7-1.5c0.5-0.2,1.3-0.4,2.3-0.6c1.3-0.2,2.3-0.3,3-0.4c0.9-0.2,1.3-0.6,1.3-1.3c0-0.7-0.2-1.2-0.7-1.4
			c-0.4-0.2-0.9-0.3-1.7-0.3c-1.5,0-2.2,0.7-2.4,2h-3.6C181.3,31.2,182,30.1,183.2,29.3 M187.3,36c-0.9,0.1-1.6,0.3-2,0.5
			c-0.7,0.3-1,0.8-1,1.6c0,1.1,0.7,1.7,2.2,1.7c0.7,0,1.2-0.1,1.6-0.4c0.8-0.5,1.3-1.4,1.3-2.6v-1.3C189.1,35.7,188.4,35.9,187.3,36
			"/>
		<path class="st8" d="M199.1,28.8v1.8h0.1c0.9-1.4,2.2-2.2,4-2.2c1.8,0,3,0.5,3.8,1.5c0.6,0.8,1,2.1,1,3.9v8h-3.6v-7.3
			c0-1-0.1-1.7-0.4-2.2c-0.3-0.6-1-1-1.9-1c-1.1,0-1.8,0.4-2.3,1.1c-0.3,0.6-0.5,1.4-0.5,2.6v6.8h-3.6v-13H199.1z"/>
		<path class="st8" d="M216.7,39.4c0.6,0,1.1-0.1,1.7-0.4c0.6-0.3,1-0.7,1.1-1.3h3.1c-0.9,2.9-3,4.3-6.1,4.3c-2,0-3.7-0.6-4.8-1.9
			c-1.2-1.3-1.8-2.9-1.8-4.9c0-1,0.2-1.9,0.5-2.7c0.5-1.3,1.3-2.3,2.4-3c1.1-0.7,2.4-1.1,3.8-1.1c1.1,0,2.1,0.2,2.9,0.6
			c1.2,0.7,2.2,1.6,2.8,3c0.5,1.2,0.7,2.6,0.7,4.1h-9.4C213.6,38.3,214.7,39.4,216.7,39.4 M216.5,31.1c-0.9,0-1.5,0.2-2.1,0.7
			c-0.5,0.5-0.8,1.2-0.9,2h5.8C219,32,218,31.1,216.5,31.1"/>
		<path class="st8" d="M226.8,29.3c1.1-0.6,2.4-0.9,4.1-0.9c1.6,0,2.9,0.2,3.8,0.7c1.3,0.6,1.9,1.6,1.9,3v6.7c0,1.4,0.2,2.4,0.5,2.9
			h-3.6c-0.1-0.4-0.2-0.8-0.2-1.3c-1,1.1-2.5,1.6-4.4,1.6c-1.3,0-2.3-0.3-3.1-0.9c-0.9-0.7-1.3-1.6-1.3-2.9c0-0.7,0.1-1.3,0.4-1.8
			c0.4-0.7,0.9-1.2,1.7-1.5c0.5-0.2,1.3-0.4,2.3-0.6c1.3-0.2,2.3-0.3,3-0.4c0.9-0.2,1.3-0.6,1.3-1.3c0-0.7-0.2-1.2-0.7-1.4
			c-0.3-0.2-0.9-0.3-1.7-0.3c-1.5,0-2.2,0.7-2.4,2h-3.6C224.9,31.2,225.6,30.1,226.8,29.3 M231,36c-0.9,0.1-1.6,0.3-2,0.5
			c-0.7,0.3-1,0.8-1,1.6c0,1.1,0.7,1.7,2.2,1.7c0.7,0,1.2-0.1,1.6-0.4c0.8-0.5,1.3-1.4,1.3-2.6v-1.3C232.7,35.7,232,35.9,231,36"/>
		<path class="st8" d="M242.7,28.8v1.8h0.1c0.9-1.4,2.2-2.2,4-2.2c1.8,0,3,0.5,3.8,1.5c0.6,0.8,1,2.1,1,3.9v8h-3.6v-7.3
			c0-1-0.1-1.7-0.4-2.2c-0.4-0.6-1-1-1.9-1c-1.1,0-1.8,0.4-2.3,1.1c-0.3,0.6-0.5,1.4-0.5,2.6v6.8h-3.6v-13H242.7z"/>
	</g>
	<g>
		<path class="st8" d="M93.3,63.4c-1.3,1.2-3.2,1.8-5.6,1.8c-5.1,0-7.6-2.4-7.6-7.2V46.9H84V58c0,1.2,0.2,2.1,0.7,2.7
			c0.6,0.8,1.6,1.2,3,1.2c1.4,0,2.3-0.3,2.9-0.9c0.6-0.6,0.8-1.6,0.8-3V46.9h3.9V58C95.4,60.4,94.7,62.2,93.3,63.4"/>
		<path class="st8" d="M101.7,51.8v1.8h0.1c0.9-1.4,2.2-2.2,4-2.2c1.8,0,3,0.5,3.8,1.5c0.6,0.8,0.9,2.1,0.9,3.9v8H107v-7.3
			c0-1-0.1-1.7-0.4-2.2c-0.3-0.7-1-1-1.9-1c-1.1,0-1.8,0.4-2.3,1.1c-0.3,0.6-0.5,1.4-0.5,2.6v6.8h-3.6v-13H101.7z"/>
		<path class="st8" d="M113.3,46.9h3.6v2.9h-3.6V46.9z M116.9,64.8h-3.6v-13h3.6V64.8z"/>
		<polygon class="st8" points="122.9,64.8 118.5,51.8 122.2,51.8 124.9,60.7 125,60.7 127.7,51.8 131.2,51.8 126.9,64.8 		"/>
		<path class="st8" d="M138.8,62.5c0.6,0,1.1-0.1,1.7-0.4c0.6-0.3,1-0.7,1.1-1.3h3.1c-0.9,2.9-3,4.3-6.1,4.3c-2,0-3.7-0.6-4.8-1.9
			c-1.2-1.2-1.8-2.9-1.8-4.9c0-1,0.2-1.9,0.5-2.7c0.5-1.3,1.3-2.3,2.4-3c1.1-0.7,2.4-1.1,3.8-1.1c1.1,0,2.1,0.2,2.9,0.6
			c1.2,0.6,2.2,1.6,2.8,3c0.5,1.2,0.8,2.6,0.7,4.1h-9.3C135.8,61.4,136.8,62.5,138.8,62.5 M138.6,54.2c-0.9,0-1.5,0.2-2.1,0.7
			c-0.5,0.5-0.8,1.2-0.9,2h5.8C141.1,55.1,140.2,54.2,138.6,54.2"/>
		<path class="st8" d="M150.5,51.8v2.4h0.1c0.3-0.8,0.9-1.5,1.7-2c0.8-0.5,1.6-0.8,2.5-0.8c0.2,0,0.5,0,0.8,0.1v3.3
			c-0.4-0.1-0.8-0.1-1.3-0.1c-2.3,0-3.5,1.4-3.5,4.2v5.8h-3.6v-13H150.5z"/>
		<path class="st8" d="M160.5,62.2c0.5,0.3,1.1,0.5,1.9,0.5c0.6,0,1.1-0.1,1.6-0.4c0.5-0.3,0.8-0.7,0.8-1.3c0-0.6-0.6-1.1-1.7-1.4
			c-0.3-0.1-1.1-0.3-2.4-0.6c-1.2-0.3-2.2-0.6-2.8-1c-0.9-0.6-1.4-1.4-1.4-2.5c0-2.8,1.9-4.2,5.6-4.2c1.6,0,2.9,0.3,3.8,0.9
			c1.2,0.7,1.8,1.8,1.9,3.3h-3.4c-0.1-1.2-0.9-1.8-2.4-1.8c-1.3,0-2,0.4-2,1.2c0,0.6,0.4,1,1.3,1.3c1.2,0.3,2.1,0.6,2.8,0.7
			c1.3,0.3,2.2,0.7,2.8,1.1c0.9,0.6,1.3,1.5,1.3,2.6c0,1.6-0.6,2.7-1.9,3.5c-1,0.6-2.4,1-4.1,1c-1.7,0-3.1-0.3-4.1-1
			c-1.3-0.8-1.9-2-2-3.6h3.4C159.6,61.3,159.9,61.9,160.5,62.2"/>
		<path class="st8" d="M170.4,46.9h3.6v2.9h-3.6V46.9z M174,64.8h-3.6v-13h3.6V64.8z"/>
		<path class="st8" d="M183.9,51.8v2.4h-2.6v6.4c0,0.6,0.1,1,0.3,1.2c0.2,0.2,0.6,0.3,1.2,0.3c0.4,0,0.8,0,1.1-0.1v2.8
			c-0.5,0.1-1.2,0.1-2.1,0.1c-1.3,0-2.2-0.2-2.9-0.6c-0.8-0.5-1.2-1.3-1.2-2.5v-7.6h-2.2v-2.4h2.2V48h3.6v3.9H183.9z"/>
		<path class="st8" d="M190.4,68.7c-0.7,0.4-1.6,0.7-2.8,0.7c-0.5,0-1.3,0-2.2-0.1v-2.9l1,0.1c0.4,0,0.8,0,1.1,0
			c0.4,0,0.8-0.2,1-0.5c0.3-0.3,0.4-0.7,0.4-1.1c0-0.3,0-0.5-0.2-0.8l-4.5-12.2h3.8l2.9,8.9h0l2.8-8.9h3.7L192,66.4
			C191.6,67.5,191.1,68.3,190.4,68.7"/>
	</g>
</g>
<g>
	<g>
		<path class="st1" d="M35.2,69.1c18.8,0,34.2-15.4,34.2-34.2C69.4,16.1,54,0.7,35.2,0.7C16.3,0.7,1,16.1,1,34.9
			C1,53.8,16.3,69.1,35.2,69.1z"/>
		<path class="st0" d="M35.2,69.5C16.1,69.5,0.6,54,0.6,34.9c0-19.1,15.5-34.6,34.6-34.6c19.1,0,34.6,15.5,34.6,34.6
			C69.7,54,54.2,69.5,35.2,69.5z M35.2,1.1C16.5,1.1,1.4,16.3,1.4,34.9c0,18.7,15.2,33.8,33.8,33.8C53.8,68.8,69,53.6,69,34.9
			C69,16.3,53.8,1.1,35.2,1.1z"/>
	</g>
	<path class="st2" d="M35.2,2.3c18,0,32.6,14.6,32.6,32.6c0,18-14.7,32.6-32.6,32.6c-17.9,0-32.6-14.7-32.6-32.6
		C2.5,17,17.2,2.3,35.2,2.3L35.2,2.3z M35.2,8.3c-14.6,0-26.6,12-26.6,26.6c0,14.7,12,26.6,26.6,26.6c14.7,0,26.6-12,26.6-26.6
		C61.8,20.3,49.8,8.3,35.2,8.3z"/>
	<g>
		<path class="st3" d="M35.2,59.9c13.8,0,25-11.2,25-25c0-13.8-11.2-25-25-25c-13.7,0-25,11.2-25,25C10.2,48.7,21.4,59.9,35.2,59.9z
			"/>
		<path class="st0" d="M35.2,60.3c-14,0-25.3-11.4-25.3-25.4c0-14,11.4-25.3,25.3-25.3c14,0,25.4,11.4,25.4,25.3
			C60.5,48.9,49.1,60.3,35.2,60.3z M35.2,10.3c-13.6,0-24.6,11-24.6,24.6c0,13.6,11,24.6,24.6,24.6c13.6,0,24.6-11,24.6-24.6
			C59.8,21.4,48.7,10.3,35.2,10.3z"/>
	</g>
	<path class="st1" d="M35.2,58.9c13.2,0,24-10.8,24-24c0-13.2-10.8-24-24-24c-13.2,0-23.9,10.8-23.9,24C11.2,48.1,22,58.9,35.2,58.9
		z"/>
	<g>
		<path class="st4" d="M29.4,55.1v-2h-0.5v-0.8l1.5-0.2v3H29.4L29.4,55.1z M31.8,52.2h0.1l0.1,0h0.1h1.1h0.1l0.1,0h0.1l0.1,0l0.1,0
			l0.1,0.1l0.1,0l0.1,0l0.1,0.1l0.1,0.1l0,0.1l0,0.1l0,0.1l0,0.1v0.1l0,0.1v0.3l0,0.2l0,0.2l0,0.2l-0.1,0.2L34,54.4l-0.1,0.2
			l-0.1,0.1l-0.1,0.1l-0.1,0.1l-0.1,0l-0.1,0L33.3,55l-0.1,0L33.2,55l-0.1,0l-0.1,0l-0.1,0l-0.1,0h-0.1l-0.1,0h-0.1l-0.1,0h-0.1
			h-0.1h-0.1h0l0,0h0l0,0h0l0,0h0l0,0h0l-0.1,0l-0.8-0.9h0.7l0.2,0h0.2h0.1l0.1,0h-0.1h-0.2H32h-0.1l-0.1,0l-0.1,0l-0.1,0l-0.1,0
			l-0.1,0L31.3,54l0-0.1l-0.1-0.1l-0.1-0.1l0-0.1l0-0.1l0-0.1v-0.1V53V53l0-0.1l0-0.1l0-0.1l0.1-0.1l0-0.1l0-0.1l0.1,0l0.1-0.1
			l0.1,0l0.1,0l0.1,0L31.8,52.2L31.8,52.2z M32.9,53.3L32.9,53.3h0.2h0v0v-0.1v-0.1v0h0h0h0H33h-0.1h-0.7h0h-0.1h-0.1h0h0l0,0v0v0.1
			v0h0l0,0h0.1h0.1h0.1h0.1h0h0.1h0h0.1h0.1h0h0.1L32.9,53.3L32.9,53.3L32.9,53.3z M35.2,55.2l1.3-2h-0.9v0.6l-1-0.2v-1.3h3.2v0.7
			l-1.4,2.3H35.2L35.2,55.2z M39,52.2h0.1l0.1,0h0.1h1h0.1l0.1,0h0.1l0.1,0l0.1,0l0.1,0.1l0.1,0l0.1,0l0.1,0.1l0.1,0.1l0,0.1l0,0.1
			l0,0.1l0,0.1v0.1v0.1v0.3v0.2l0,0.2l-0.1,0.2l0,0.2l-0.1,0.1l-0.1,0.2L41,54.6l-0.1,0.1l-0.1,0.1l-0.1,0l-0.1,0L40.5,55l-0.1,0
			L40.4,55l-0.1,0l-0.1,0l-0.1,0l-0.1,0h-0.1l-0.1,0h-0.1l-0.1,0h-0.1h-0.1h-0.1l0,0h0l0,0h0l0,0h0l0,0h0h0l-0.1,0l-0.7-0.9H39
			l0.2,0h0.2h0.2l0.1,0h-0.1h-0.2h-0.1h-0.2l-0.1,0l-0.1,0l-0.1,0l-0.1,0l-0.1,0L38.5,54L38.4,54l-0.1-0.1l-0.1-0.1l-0.1-0.1l0-0.1
			v-0.1v-0.1V53V53v-0.1l0-0.1l0.1-0.1l0-0.1l0.1-0.1l0.1-0.1l0.1,0l0.1-0.1l0.1,0l0.1,0l0.1,0L39,52.2L39,52.2z M40.2,53.3
			L40.2,53.3h0.1h0.1v0v-0.1l0-0.1v0h0h0h0h-0.1h-0.1h-0.7h-0.1h-0.1h0h0h0l0,0v0v0.1v0l0,0l0.1,0h0h0.1h0.1h0.1h0.1h0.1h0.1h0.1
			h0.1h0.1h0L40.2,53.3L40.2,53.3z"/>
	</g>
	<path class="st2" d="M29.6,55V53h-0.5v-0.5l1.2-0.2V55H29.6L29.6,55z M32.9,54.1L32.9,54.1h-0.2h-0.1l-0.1,0h-0.1h0h-0.1h-0.1h-0.1
		l-0.2,0h-0.1l-0.1,0h-0.1l-0.1,0L31.5,54l-0.1,0l0,0l-0.1-0.1l-0.1-0.1l-0.1-0.1l0-0.1v-0.1l0-0.1v-0.1V53V53l0-0.1v-0.1l0-0.1
		l0-0.1l0.1-0.1l0-0.1l0,0l0.1,0l0.1,0l0.1,0l0.1,0h0.1l0.1,0H32h0.1h1h0.1h0.1l0.1,0l0.1,0l0.1,0l0.1,0l0.1,0l0,0.1l0.1,0l0,0.1
		l0,0.1l0,0.1l0,0.1V53l0,0.1v0.1v0.3v0.2l0,0.2L34,54l-0.1,0.1l-0.1,0.1l-0.1,0.1l-0.1,0.1l-0.1,0.1l-0.1,0.1l-0.1,0.1l-0.1,0
		l-0.1,0l-0.1,0l-0.1,0l-0.1,0l-0.1,0h-0.1l-0.1,0l-0.1,0h-0.1l-0.1,0h-0.1h-0.1h-0.1h-0.1h0l0,0h0l0,0l0,0h0l0,0h0l0,0h0l0,0h-0.1
		l-0.5-0.6h0.3H32h0.2l0.2,0h0.2l0.1,0l0.1,0l0.1,0l0.1,0l0.1,0l0.1-0.1l0.1-0.1l0.1,0l0-0.1l0.1-0.1v0l0,0h-0.1h-0.1l-0.1,0H32.9
		L32.9,54.1L32.9,54.1z M33.3,53.1L33.3,53.1L33.3,53.1L33.3,53.1L33.3,53.1L33.2,53h0h-0.1l0,0h-0.1H33h-0.1h-0.7h-0.1h-0.1h0h0
		l0,0h0l0,0l0,0h0v0l0,0l0,0v0v0v0v0v0.1v0v0v0v0l0,0l0,0h0v0h0l0,0h0h0.1h0l0.1,0h0h0.1h0.1h0.1h0h0.1h0.1l0,0h0.1h0.1h0.1H33h0.1
		l0.1,0h0.1h0.1h0.1l0,0v0l0,0l0,0v0l0,0l0,0l0,0v0l0,0v-0.1v-0.1v-0.1L33.3,53.1L33.3,53.1L33.3,53.1z M35.5,55l1.3-2.1h-1.4v0.5
		l-0.7-0.1v-1h2.8v0.5L36.4,55H35.5L35.5,55z M40.1,54.1L40.1,54.1H40h-0.1l-0.1,0h-0.1h-0.1h-0.1h-0.1h-0.2l-0.1,0h-0.1L39,54h-0.1
		l-0.1,0L38.7,54l-0.1,0l-0.1,0l-0.1-0.1l0-0.1l0-0.1l0-0.1l0-0.1v-0.1l0-0.1V53l0-0.1v-0.1l0-0.1l0-0.1l0-0.1l0-0.1l0.1-0.1l0.1,0
		l0,0l0.1,0l0.1,0l0.1,0H39l0.1,0h0.1h0.1h1h0.1h0.1l0.1,0l0.1,0l0.1,0l0.1,0l0,0l0.1,0.1l0.1,0l0,0.1l0,0.1l0.1,0.1v0.1l0,0.1v0.1
		v0.1v0.3v0.2l0,0.2l0,0.2l-0.1,0.1l-0.1,0.1L41,54.4l-0.1,0.1l-0.1,0.1l-0.1,0.1l-0.1,0.1l-0.1,0l-0.1,0l-0.1,0l-0.1,0l-0.1,0
		l-0.1,0h-0.1L40,55l-0.1,0h-0.1l-0.1,0h-0.1h-0.1h-0.1h0l0,0h0l0,0h0l0,0l0,0h0l0,0h0l0,0h0h0l-0.5-0.6H39h0.2h0.2l0.2,0h0.1l0.1,0
		l0.1,0l0.1,0l0.1,0l0.1,0l0-0.1l0.1-0.1l0.1,0l0.1-0.1l0.1-0.1v0l-0.1,0h-0.1h-0.1l-0.1,0H40.1L40.1,54.1L40.1,54.1z M40.5,53.1
		L40.5,53.1L40.5,53.1L40.5,53.1L40.5,53.1L40.5,53h-0.1h0l0,0h-0.1h-0.1h-0.1h-0.7h-0.1h-0.1h0h-0.1l0,0h0h0l0,0l0,0v0h0v0v0l0,0v0
		v0v0.1v0v0l0,0v0v0h0l0,0l0,0l0,0l0.1,0h0h0.1h0l0.1,0h0.1h0.1h0.1h0.1h0.1h0.1h0.1l0.1,0H40h0h0.1h0.1h0.1l0.1,0h0.1h0.1h0.1l0,0
		l0,0l0,0l0,0v0l0,0l0,0l0,0v0l0,0v-0.1l0-0.1v-0.1L40.5,53.1L40.5,53.1z"/>
	<path class="st5" d="M15.9,38.3l6.4,11.2L15.9,38.3z"/>
	<path class="st6" d="M39,35l2.2,3.8l2.2-3.8H39L39,35z M43.5,34.9l1.6-2.7h-7.7l1.6,2.7H43.5L43.5,34.9z M35.8,29.4l1.6,2.7h7.8
		l1.6-2.7H35.8L35.8,29.4z M48.3,26.6H34.2l1.6,2.7h11L48.3,26.6L48.3,26.6z M46.8,23.8H23.6L22,26.5h26.4L46.8,23.8L46.8,23.8z
		 M23.6,23.7h23.1L45.1,21h-20L23.6,23.7L23.6,23.7z M43.5,18.1H26.8l-1.6,2.7h19.9L43.5,18.1L43.5,18.1z M26.8,18.1h16.6l-1.6-2.7
		H28.4L26.8,18.1z"/>
	<polygon class="st6" points="41.2,37.7 40.6,37.7 40.6,37.7 29.7,37.7 36.1,26.6 21.9,26.6 15.2,38.3 22,50.1 48.4,50.1 55.1,38.3 
		48.4,26.6 47.7,26.6 	"/>
	<path class="st2" d="M40,35.6h2.5l-1.2,2.1L40,35.6L40,35.6z M43.2,34.3h-3.9l-0.9-1.6h5.7L43.2,34.3L43.2,34.3z M36.7,30h9
		l-0.9,1.6h-7.1L36.7,30L36.7,30z M47.3,27.1l-0.9,1.6H36.1l-0.9-1.6H47.3L47.3,27.1z M46.4,24.3H23.9L23,25.9h24.4L46.4,24.3
		L46.4,24.3z M24.6,23.1h21.1l-0.9-1.6H25.5L24.6,23.1L24.6,23.1z M43.2,18.7H27.1l-0.9,1.6h17.9L43.2,18.7L43.2,18.7z M27.8,17.5
		h14.6l-0.9-1.6H28.7L27.8,17.5z"/>
	<polygon class="st7" points="48.1,27.1 48,27.1 41.6,38.3 41.6,38.3 41.6,38.3 28.7,38.3 28.7,38.3 28.7,38.3 35.1,27.1 22.3,27.1 
		15.9,38.3 22.3,49.5 48,49.5 54.5,38.3 	"/>
	<path class="st1" d="M13.5,53.1l-1.6,1.4l1,1.2l1.6-1.4l0.5,0.6l-1.6,1.4l-0.1,0.1l-0.1,0l-0.1,0.1l-0.1,0l-0.1,0h-0.1l-0.1-0.1
		l-0.1-0.1l-0.1-0.1l0-0.1L11.3,55l-0.1-0.1l-0.1-0.1l0-0.1l0-0.1l-0.1-0.1l0-0.1l0-0.1l0.1-0.1l0.1-0.1l0.1-0.1l1.6-1.4L13.5,53.1z
		 M6.3,44.3l0.2,0.6l0,0.1l0,0.1l0.1,0.1l0.1,0.1l0,0.1l0.1,0.1l0.1,0.1L7,45.7l0.1,0l0.1,0h0.1h0.1l0.1,0l0.1,0l0.1,0l0.1,0
		l0.1-0.1l0.1-0.1L8,45.3l0-0.1v-0.1V45V45v-0.1l0-0.1l0-0.1l-0.3-0.9L6.3,44.3z M5.3,43.8l2.7-1l0.6,1.7l0,0.1l0,0.1v0.1l0,0.1
		l0,0.1V45l0,0.1v0.1v0.1v0.1v0.1v0.1l0,0.1l0,0.1l0,0.1l0,0.1l-0.1,0.1l-0.1,0.1l-0.1,0.1l-0.1,0.1l-0.1,0.1L8,46.4l-0.1,0.1
		l-0.1,0l-0.1,0H7.6l-0.1,0H7.4H7.3H7.2H7.1H7l-0.1,0l-0.1,0l-0.1,0l-0.1,0l-0.1,0l-0.1-0.1l-0.1-0.1l-0.1-0.1l-0.1-0.1L6.2,46
		l0-0.1l-0.1-0.1l0-0.1L6,45.6l0-0.1l-0.1-0.1l0-0.1L5.3,43.8z M8.5,46.3L8.5,46.3l0.2-0.1l0.1,0l0.1,0l0.1,0l0.1,0l0.1,0l0.1,0.1
		l0.1,0.1l0.1,0.1l0.1,0.1l0.9,1.7l0,0.1l0,0.1l0,0.1l0,0.1v0.1V49V49l-0.1,0.1l-0.1,0.1l-0.1,0l-0.1,0.1l-0.1,0l-1.2,0.6l-0.1,0.1
		l-0.1,0l-0.1,0l-0.1,0H8.4H8.3l-0.1-0.1l-0.1,0L8,50l-0.1-0.1l-0.1-0.1l-0.1-0.1L6.9,48l0-0.1l-0.1-0.1l0-0.1v-0.1l0-0.1v-0.1v-0.1
		l0-0.1l0-0.1L7,47.2L7,47.1L7.2,47L7.2,47L8.5,46.3z M7.6,47.7l0.8,1.6l1.3-0.7L8.9,47L7.6,47.7z M12.2,49.4l0.3,0.4l-0.1,0.1
		L12.3,50l0,0.1v0.1l0,0.1l0.1,0.1l0,0.1l0.1,0.1l0.1,0h0.1l0.1,0l0.1-0.1l0.3,0.4L13,51l-0.1,0l-0.1,0l-0.1,0l-0.1,0h-0.1h-0.1
		h-0.1l-0.1,0l-0.1,0L12.2,51l-0.1-0.1L12,50.8l0-0.1l0-0.1l0-0.1l-0.1-0.1l0-0.1l0-0.1v-0.1l0-0.1v-0.1l0-0.1V50l0.1-0.1l0.1-0.1
		l0-0.1l0.1-0.1L12.2,49.4z M11.7,51.8l-1-1.4l-1.2,0.8l0.9,1.4l0.3-0.2l-0.5-0.8l0.5-0.4l1,1.5l-0.8,0.6l-0.1,0.1l-0.1,0l-0.1,0.1
		l-0.1,0l-0.1,0h-0.1l-0.1,0l-0.1-0.1l-0.1-0.1L10,53.2l0-0.1l-1-1.5l-0.1-0.1l-0.1-0.1l0-0.1l0-0.1l0-0.1l0-0.1l0-0.1l0.1-0.1
		l0.1-0.1L9,50.6l0.1,0l1.2-0.8l0.1-0.1l0.1,0l0.1-0.1l0.1,0l0.1,0l0.1,0l0.1,0l0.1,0.1l0.1,0.1l0.1,0.1l0,0.1l1,1.5l0,0.1l0,0.1
		l0.1,0.1l0,0.1l0,0.1V52v0.1l-0.1,0.1l-0.1,0.1l-0.1,0l-0.1,0.1L12,52.6L11.4,52L11.7,51.8z M16.7,58.4l0.6,0.5l0.1-0.8L16.7,58.4z
		 M14.7,58.4l3-1.3l0.6,0.4l-0.4,3.3l-0.7-0.6l0.1-0.6l-1.2-0.9L15.4,59L14.7,58.4z M18.1,60.9l1.5-2.4l0.7,0.4l-0.5,0.9l1.6-0.2
		l1.1,0.6l-2.3,0.2l1,2.4L20,62.1l-0.7-1.7l-0.6,0.9L18.1,60.9z M22.4,62.6l0.6,0.3l0.1,0l0.1,0l0.1,0.1l0.1,0.1h0.1l0.1,0h0.1h0.1
		h0.1l0.1,0l0.1-0.1l0.1-0.1l0-0.1l0.1-0.1l0.1-0.1l0-0.1l0-0.1l0-0.1v-0.1v-0.1L24.4,62l0-0.1l-0.1-0.1l-0.1-0.1l-0.1,0l-0.1,0
		l-0.1-0.1L23,61.2L22.4,62.6z M21.4,62.9l1.1-2.6l1.7,0.7l0.1,0l0.1,0.1l0.1,0l0.1,0.1l0.1,0l0.1,0.1l0.1,0.1l0.1,0.1l0,0.1
		l0.1,0.1l0,0.1l0.1,0.1l0,0.1V62l0,0.1v0.1v0.1v0.1v0.1l0,0.1l0,0.1l0,0.1l0,0.1l0,0.1L25,63l0,0.1l0,0.1l-0.1,0.1l0,0.1l-0.1,0
		l-0.1,0.1l-0.1,0.1l-0.1,0l-0.1,0.1l-0.1,0l-0.1,0.1l-0.1,0h-0.1l-0.1,0H24l-0.1,0l-0.1,0h-0.1l-0.1,0l-0.1,0l-0.1,0l-0.1,0l-0.1,0
		l-0.1-0.1l-0.1,0l-0.1,0L21.4,62.9z M24.9,64.3l0.7-2.7l2.8,0.8L28.3,63l-2-0.5l-0.1,0.4l1.2,0.3l-0.2,0.6L26,63.4l-0.1,0.4l2,0.6
		l-0.2,0.7L24.9,64.3z M29.4,63.8L29.4,63.8L29,65.4l-0.7-0.2l0.6-2.8l0.5,0.1l1.5,1.9l0.1,0.1l0.1-0.1l0.3-1.5l0.7,0.2l-0.6,2.8
		L31,65.8L29.4,63.8z M32.6,62.9l0.1-0.8l0.7,0.1L33.4,63L32.6,62.9z M32.3,65.9l0.3-2.8l0.8,0.1L33.1,66L32.3,65.9z M33.4,66v-0.4
		l1.7-1.7h-1.5v-0.7h2.9v0.4l-1.7,1.7l1.7,0V66H33.4z M40.1,62.5l-0.7,0.2l-0.2-0.8l0.7-0.1L40.1,62.5z M40.9,62.3l-0.7,0.1L40,61.7
		l0.7-0.2L40.9,62.3z M40.9,62.5l0.8-0.2l0.4,2.1v0.1l0,0.1v0.1v0.1l0,0.1l0,0.1l-0.1,0.1L42,65.2l-0.1,0l-0.1,0.1l-0.1,0l-0.1,0
		h-0.1l-1.6,0.3l-0.1,0h-0.1l-0.1,0h-0.1l-0.1,0h-0.1l-0.1,0l-0.1-0.1l-0.1-0.1l0-0.1l0-0.1l0-0.1l0-0.1L38.6,63l0.8-0.2l0.4,2.1
		l1.5-0.3L40.9,62.5z M45.1,63l-0.5-1.5l0.7-0.2l0.8,2.7l-0.5,0.2l-2.4-1v0.1l0.5,1.5L43,65.1l-0.8-2.7l0.5-0.2l2.3,0.9L45.1,63
		L45.1,63L45.1,63z M46.8,63.8l-1.1-2.6l0.7-0.3l0.1,0.1l0.6-0.3l1.7,1.1l0-2l0.6-0.3l2.4-1.6l0.4,0.5l-1.7,1.2l0.2,0.3l1-0.7
		l0.4,0.6l-1,0.7l0.3,0.4l1.7-1.2l0.4,0.6l-2.4,1.6l-1.5-2.2l-0.1,3l-0.5,0.3l-2.5-1.6l0.9,2.3L46.8,63.8z M45.7,61l-0.3-0.7
		l0.7-0.3l0.3,0.7L45.7,61z M54.1,56.7l-1,0.8l0.3,0.4l1-0.8l0.1-0.1l0-0.1l-0.2-0.3l-0.1,0L54.1,56.7L54.1,56.7z M53.9,59.7
		l-1.8-2.2l1.8-1.5l0.1-0.1l0.1,0l0.1-0.1h0.1h0.1l0.1,0l0.1,0.1l0.1,0.1l0.5,0.5l0.1,0.1l0,0.1l0,0.1v0.1l0,0.1v0.1l-0.1,0.1
		l-0.1,0.1l-0.1,0.1L55,57.5l1.6,0l-0.9,0.8l-1.4-0.1l-0.3,0.3l0.6,0.8L53.9,59.7z M56.6,54.2l-1,1.1l0.3,0.3l1.1-1.2l0-0.1l0.1-0.1
		l0.1-0.1l0.1-0.1l0.1,0l0.1,0l0.1,0l0.1,0l0.1,0.1l0.1,0.1l0.3,0.3l0.1,0.1l0.1,0.1l0.1,0.1l0.1,0.1l0,0.1l0,0.1l-0.1,0.1l0,0.1
		l-0.1,0.1l0,0.1l-1.1,1.2l0,0.1L57,57l-0.1,0l-0.1,0.1l-0.1,0h-0.1l-0.1,0l-0.1-0.1L56.2,57l-0.1-0.1L56,56.8l0.4-0.7l0.2,0.2
		l1.1-1.2l-0.3-0.3l-1,1.1l-0.1,0.1l-0.1,0l-0.1,0.1l-0.1,0.1l-0.1,0l-0.1,0h-0.1l-0.1,0l-0.1-0.1l-0.1-0.1l-0.1,0l-0.2-0.2l-0.1,0
		L55,55.8l-0.1-0.1l0-0.1l0-0.1v-0.1l0-0.1l0-0.1L55,55l0.1-0.1l0.1-0.1l1-1.1l0.1-0.1l0.1-0.1l0.1-0.1l0.1,0l0.1,0l0.1,0l0.1,0
		l0.1,0.1l0.1,0.1l0.1,0.1l-0.4,0.7L56.6,54.2z M56.8,52.7l-0.6-0.5l0.5-0.6l0.6,0.5L56.8,52.7z M59.1,54.6l-2.2-1.8l0.5-0.6
		l2.2,1.8L59.1,54.6z M59.3,50.8l1.8,1.2l-0.5,0.7l-1.8-1.2l-0.7,1l-0.6-0.4l1.8-2.7l0.6,0.4L59.3,50.8z M61.9,50.7l-2.5-1.4
		l1.4-2.5l0.6,0.3l-1,1.8l0.3,0.2l0.6-1l0.6,0.3l-0.6,1.1l0.4,0.2l1-1.9l0.6,0.3L61.9,50.7z M62.3,45l-0.6,1.4l0.3,0.2l0.6-1.4
		l0.1-0.1l0-0.1l0.1-0.1l0.1-0.1l0.1-0.1l0.1,0l0.1-0.1l0.1,0h0.1l0.1,0l0.1,0l0.1,0l0.1,0l0.3,0.1l0.1,0.1l0.1,0l0.1,0.1l0.1,0.1
		l0.1,0.1l0.1,0.1l0,0.1v0.1l0,0.1v0.1l0,0.1l0,0.1l-0.1,0.1l-0.6,1.5l0,0.1l0,0.1l-0.1,0.1l-0.1,0.1l-0.1,0.1l-0.1,0.1l-0.1,0h-0.1
		l-0.1,0l-0.1,0l-0.1,0l-0.1,0l-0.1-0.1l0.1-0.7L63,47l0.6-1.5l-0.4-0.2l-0.6,1.4l-0.1,0.1l0,0.1L62.6,47l-0.1,0.1l-0.1,0.1l-0.1,0
		h-0.1H62H62l-0.1,0l-0.1,0l-0.1-0.1l-0.3-0.1l-0.1,0l-0.1,0l-0.1-0.1l-0.1,0l-0.1-0.1L61,46.7l0-0.1v-0.1v-0.1l0-0.1l0-0.1l0-0.1
		l0-0.1l0.6-1.4l0-0.1l0.1-0.1l0-0.1l0.1-0.1l0.1-0.1l0.1-0.1l0.1,0h0.1h0.1l0.1,0l0.2,0.1l0.1,0l-0.1,0.8L62.3,45z M64.8,44.5
		l-2.7-0.8l0.2-0.8l2.7,0.8L64.8,44.5z M61.9,43.6l-0.8-0.2l0.2-0.7l0.8,0.2L61.9,43.6z M6.3,40.5h0.1l0.1,0.1l0.1,0.1l0.1,0.1
		l0.1,0.1l0.1,0.1L7,41v0.1v0.1l0,0.1l-0.1,0.1l-0.1,0.1l-0.1,0.1l-0.1,0.1l-0.1,0l-0.1,0l-0.1,0l-0.1,0l-0.1-0.1l-0.1-0.1l-0.1-0.1
		l-0.1-0.1l0-0.1l0-0.1l0-0.1l0-0.1l0.1-0.1l0.1-0.1l0.1-0.1l0.1-0.1l0.1-0.1H6.3z M63.9,40.5H64l0.1,0.1l0.1,0.1l0.1,0.1l0.1,0.1
		l0.1,0.1l0,0.1l0,0.1l0,0.1l0,0.1l-0.1,0.1l-0.1,0.1l-0.1,0.1l-0.1,0.1l-0.1,0l-0.1,0l-0.1,0l-0.1,0l-0.1-0.1l-0.1-0.1l-0.1-0.1
		l-0.1-0.1l0-0.1v-0.1V41l0-0.1l0.1-0.1l0.1-0.1l0.1-0.1l0.1-0.1l0.1-0.1H63.9z M63.3,35.1l0-0.8l2.2,0v-1.2l-2.2,0.1l0-0.8l2.8-0.2
		l0,0.8l0.1,2.7V36v0.3l-0.1,0.5l-1,0.8l0.9,0.9l-0.1,1l-1.5-1.6l-1.3-0.1l0.1-0.8l1.2,0.1l1-0.8v-1.2L63.3,35.1z M45.8,8.8L43,7.9
		l0.9-2.7l2.8,0.9l-0.2,0.6l-2-0.7l-0.1,0.4l1.2,0.4l-0.2,0.6l-1.1-0.4L44,7.5l2,0.7L46,8.4l2.3-1.5l0.6,0.3l0.2,3l1.5-2.3L51,8.2
		l0.7,2.4l0,0.1l0.1-0.1l0.8-1.3l0.6,0.4l-1.5,2.4l-0.5-0.3l-0.8-2.5l-0.1,0.1l-0.8,1.3l-0.5-0.4L48.3,10l0-0.7l-1.4-0.7l-0.5,0.4
		L45.8,8.8z M34.1,5.8h-0.4v1h-0.8L31.8,7l-1.2-0.8l-0.4,0.1l0.2,1l-0.8,0.1L29,4.6l2.3-0.4h0.1l0.1,0h0.1l0.1,0h0.1l0.1,0l0.1,0.1
		l0.1,0.1l0,0.1l0.1,0.1l0.1,0.7v0.1v0.1v0.1l0,0.1l-0.1,0.1l-0.1,0.1l-0.1,0L31.9,6l-0.1,0l-0.1,0h-0.1l1.2,0.7V4l2.4,0l0.1,0h0.1
		h0.1l0.1,0l0.1,0l0.1,0.1l0.1,0.1l0.1,0.1l0,0.1v0.1v0.1l0,0.7l0,0.1v0.1l0,0.1l-0.1,0.1l-0.1,0.1l-0.1,0l-0.1,0.1l-0.1,0h-0.1
		l0.6,0.5l1.6-2.3l0.7,0.1l1.3,2.8l0.7-2.6l0.5,0.1l1.5,2l0.1,0.1l0.1-0.1V6.3l0.4-1.4L43.3,5l-0.7,2.8L42,7.7l-1.5-2.1l-0.1,0.1
		l-0.4,1.5L39.5,7l-0.9,0l-0.3-0.6l-1.5-0.1l-0.4,0.6l-0.1,0h-1.1L34.1,5.8z M4.6,39.3l-0.4-2.9l0.7-0.1l0.3,2.1l0.4-0.1l-0.2-1.2
		L6,37.1l0.2,1.2l0.4-0.1l-0.3-2.1l0.2,0l-2.3-1.4l0-0.7l2.5-1.3l-0.1,0H6.5l-0.1,0H6.3l-0.1-0.8l0.3,0l0.2-1.6l-0.4-0.1l-0.2,1.5
		v0.1l0,0.1l0,0.1l0,0.1l0,0.1L6,32.3l-0.1,0.1l-0.1,0H5.7l-0.1,0l-0.1,0H5.4l-0.3,0l-0.1,0H4.9l-0.1,0l-0.1,0l-0.1,0l-0.1-0.1
		l-0.1-0.1l0-0.1l-0.1-0.1v-0.1v-0.1v-0.1l0-0.1l0.2-1.5V30l0-0.1v-0.1l0-0.1l0.1-0.1l0.1-0.1L5,29.4l0.1,0l0.1,0h0.1h0.1h0.1l0.2,0
		l0.1,0.8l-0.3,0l-0.2,1.5l0.3,0l0.2-1.5l0-0.1l0-0.1v-0.1l0-0.1l0.1-0.1l0.1-0.1l0.1,0l0.1-0.1l0.1,0h0.1h0.1h0.1h0.1l0.4,0l0.1,0
		H7l0.1,0l0.1,0l0.1,0.1l0.1,0.1l0.1,0.1l0,0.1v0.1v0.1v0.1v0.1L7.3,32v0.1l0,0.1l0,0.1l-0.1,0.1l-0.1,0.1l0.1,0l0,0.9l-0.6,0.3
		l-0.1,1.5l0.6,0.3l0,0.5L7.4,39L4.6,39.3z M65.2,30.9L65,29.4l-0.4,0.1l0.2,1.5l0,0.1v0.1v0.1v0.1v0.1l0,0.1l-0.1,0.1l-0.1,0.1
		l-0.1,0.1l-0.1,0l-0.1,0h-0.1l-0.1,0l-0.4,0.1h-0.1l-0.1,0h-0.1l-0.1,0h-0.1l-0.1,0l-0.1-0.1l-0.1-0.1l0-0.1l-0.1-0.1l0-0.1l0-0.1
		l0-0.1l-0.2-1.6v-0.1l0-0.1v-0.1l0-0.1v-0.1l0-0.1l0.1-0.1L63,29l0.1-0.1l0.1,0l0.1,0h0.1l0.1,0l0.2,0l0.3,0.7l-0.3,0.1l0.3,1.6
		l0.4-0.1l-0.2-1.5v-0.1l0-0.1v-0.1l0-0.1v-0.1l0-0.1l0-0.1l0.1-0.1l0.1-0.1l0.1,0l0.1,0h0.1l0.1,0l0.3-0.1h0.1H65h0.1h0.1l0.1,0
		l0.1,0l0.1,0.1l0.1,0.1l0.1,0.1l0,0.1l0,0.1l0,0.1l0.2,1.5v0.1l0,0.1v0.1v0.1l0,0.1l0,0.1l-0.1,0.1l-0.1,0.1l-0.1,0l-0.1,0.1
		l-0.1,0h-0.1l-0.1,0L64.9,31L65.2,30.9z M61.8,25.7l2.7-0.7l0.6,2.3l0,0.1v0.1l0,0.1v0.1l0,0.1l0,0.1l-0.1,0.1L65,28L64.9,28
		l-0.1,0l-0.7,0.2l-0.1,0l-0.1,0l-0.1,0l-0.1,0l-0.1,0L63.5,28l-0.1-0.1l0-0.1l0-0.1l-0.7,1.4l-0.3-1.2l0.7-1.3L63,26.2l-1,0.3
		L61.8,25.7z M64.5,27.1l-0.3-1.2L63.6,26l0.3,1.2l0,0.1l0,0.1h0.1l0.3-0.1l0.1,0v-0.1L64.5,27.1z M60.6,22.7l2.6-1.1l1.1,2.7
		l-0.6,0.3l-0.8-1.9l-0.3,0.2l0.5,1.1l-0.6,0.3L62,23.1l-0.4,0.2l0.8,2l-0.6,0.3L60.6,22.7z M59.7,21.1l1.7-2.8l0.4,0.8l-1.1,1.7h2
		l0.4,0.7l-3.3,0L59.7,21.1z M58.5,19.2l2.4-1.6l0.5,0.7L59,19.9L58.5,19.2z M58.8,17.5L58.8,17.5l1.3-0.9l0.5,0.6l-2.3,1.7
		l-0.3-0.4l0.1-2.6l-0.1,0l-1.3,1l-0.5-0.6l2.3-1.7l0.3,0.5L58.8,17.5L58.8,17.5L58.8,17.5z M56.3,12.2l-1.5,1.5l1.1,1.1l1.5-1.5
		l0.6,0.6l-1.5,1.5l-0.1,0.1l-0.1,0.1l-0.1,0.1L56,15.7h-0.1l-0.1,0l-0.1-0.1l-0.1-0.1l-0.1-0.1l-1.2-1.2l-0.1,0l0-0.1L54,14
		L54,13.8l-0.1-0.1v-0.1l0-0.1l0.1-0.1l0.1-0.1l0.1-0.1l1.5-1.5L56.3,12.2z M47.5,8.2l0.7,0.4l0-0.8L47.5,8.2z M37.2,5.6L38,5.7
		l-0.3-0.8L37.2,5.6z M35,4.6l-1.3,0v0.5H35h0.1l0.1,0V5.1V4.7V4.7L35,4.6L35,4.6z M31.2,4.9l-1.3,0.2L30,5.6l1.3-0.2l0.1,0l0.1,0
		V5.3l0-0.3l0-0.1H31.2L31.2,4.9z M26.4,8.2l-0.8-2.7l2.8-0.8l0.2,0.6l-2,0.5l0.1,0.4l1.2-0.3l0.2,0.6l-1.2,0.3L27,7.3l2.1-0.6
		l0.2,0.7L26.4,8.2z M24.7,6.6l0.7,2l-0.8,0.3l-0.7-2l-1.1,0.4l-0.3-0.6l3.1-1.1l0.3,0.6L24.7,6.6z M22.9,9.6l-1.3-2.6l0.7-0.4
		l1.3,2.5L22.9,9.6z M19.7,11.4L18.2,9l1.5-0.9L19.8,8L19.9,8l0.1,0L20,7.9l0.1,0l0.1,0l0.1,0l0.1,0l0.1,0l0.1,0h0.1h0.1h0.1h0.1
		l0.2,0l0.1,0.1l0.1,0l0.1,0.1L21.6,8l0.1,0.1l0.1,0.1l0.1,0.1l0.1,0.1l0.1,0.1l0,0.1l0,0.1L22,8.8v0.1l0,0.1v0.1l0,0.1v0.1l0,0.1
		v0.1l0,0.1l0,0.1l0,0.1l0,0.1l-0.1,0.1L21.8,10l-0.1,0.1l-0.1,0.1l-0.1,0.1l-0.1,0.1l-0.1,0.1l-0.1,0l-0.1,0.1l-0.1,0.1L19.7,11.4z
		 M20,10.4l0.6-0.4l0.1-0.1l0.1-0.1L21,9.8L21,9.7l0-0.1l0.1-0.1l0.1-0.1l0-0.1V9.2l0-0.1l0-0.1l0-0.1l0-0.1l-0.1-0.1L21,8.7
		l-0.1-0.1l-0.1-0.1l-0.1-0.1h-0.1h-0.1h-0.1l-0.1,0l-0.1,0.1l-0.1,0l-0.1,0.1l-0.9,0.5L20,10.4z M17.2,13.3l-1.7-2.3l2.3-1.8
		l0.4,0.5l-1.6,1.3l0.2,0.3l1-0.7l0.4,0.5l-1,0.7l0.3,0.4L19,11l0.4,0.6L17.2,13.3z M12.7,13.5l1.9,0.3l-0.2-1.9l0.5-0.4l2,2.1
		l-0.6,0.5l-1.1-1.2l0.2,1.6l-0.2,0.2l-1.6-0.3l1.1,1.2l-0.5,0.5L12.3,14L12.7,13.5z M11.2,18L11.2,18l-1.4-0.8l0.4-0.6l2.4,1.5
		l-0.3,0.5l-2.4,0.8l0,0.1l1.3,0.8l-0.4,0.6l-0.1-0.1l-0.5,1L9,22.3l-0.2,0.4l0.9,0.4l-0.4,0.7l-2.6-1.3l1-2.1l0.1-0.1L8,20.2
		l0.1-0.1l0.1-0.1L8.3,20h0.1l0.1,0l0.1,0l0.6,0.3l0.1,0l0.1,0.1l0.1,0.1l0,0.1l0,0.1v0.1V21l-0.1,0.1l0,0.1l0,0.1l1.3-0.6l-2.3-1.4
		l0.3-0.5L11.2,18L11.2,18L11.2,18z M8.3,21l-0.6,1.2l0.5,0.2l0.5-1.2l0.1-0.1v-0.1L8.7,21l-0.3-0.1l-0.1,0L8.3,21L8.3,21z
		 M8.3,26.8l-2.7-0.9l0.9-2.8l0.6,0.2l-0.6,2l0.4,0.1l0.4-1.2l0.6,0.2l-0.4,1.2l0.4,0.1l0.7-2L9.2,24L8.3,26.8z M5.9,27.4L8,27.8
		l-0.2,0.8l-2.1-0.5l-0.3,1.2l-0.7-0.2L5.5,26l0.7,0.2L5.9,27.4z M5.9,34.8l0-0.8l-0.8,0.4L5.9,34.8z"/>
</g>
</svg>
